<svg width="22" height="22" viewBox="0 0 22 22" fill="none" xmlns="http://www.w3.org/2000/svg">
<path d="M12.1004 15.4003C12.1004 16.0078 11.6079 16.5003 11.0004 16.5003C10.3929 16.5003 9.90039 16.0078 9.90039 15.4003C9.90039 14.7928 10.3929 14.3003 11.0004 14.3003C11.6079 14.3003 12.1004 14.7928 12.1004 15.4003Z" fill="#303443"/>
<path fill-rule="evenodd" clip-rule="evenodd" d="M11.0004 5.5C11.6079 5.5 12.1004 5.99249 12.1004 6.6V12.1C12.1004 12.7075 11.6079 13.2 11.0004 13.2C10.3929 13.2 9.90039 12.7075 9.90039 12.1V6.6C9.90039 5.99249 10.3929 5.5 11.0004 5.5Z" fill="#303443"/>
<path fill-rule="evenodd" clip-rule="evenodd" d="M11 2.2C6.13989 2.2 2.2 6.13989 2.2 11C2.2 15.8601 6.13989 19.8 11 19.8C15.8601 19.8 19.8 15.8601 19.8 11C19.8 6.13989 15.8601 2.2 11 2.2ZM0 11C0 4.92487 4.92487 0 11 0C17.0751 0 22 4.92487 22 11C22 17.0751 17.0751 22 11 22C4.92487 22 0 17.0751 0 11Z" fill="#303443"/>
</svg>
