<svg width="22" height="21" viewBox="0 0 22 21" fill="none" xmlns="http://www.w3.org/2000/svg">
<path fill-rule="evenodd" clip-rule="evenodd" d="M20.2584 2.57403C20.649 2.1835 20.649 1.55034 20.2584 1.15981C19.8679 0.76929 19.2348 0.76929 18.8442 1.15981L10.9571 9.04698L3.06986 1.15978C2.67934 0.769256 2.04617 0.769256 1.65565 1.15978C1.26513 1.5503 1.26513 2.18347 1.65565 2.57399L9.54285 10.4612L1.15972 18.8443C0.769195 19.2349 0.769194 19.868 1.15972 20.2585C1.55024 20.6491 2.18341 20.6491 2.57393 20.2585L10.9571 11.8754L19.3402 20.2585C19.7307 20.649 20.3639 20.649 20.7544 20.2585C21.1449 19.868 21.1449 19.2348 20.7544 18.8443L12.3713 10.4612L20.2584 2.57403Z" fill="white" fill-opacity="0.4"/>
</svg>
