<svg width="16" height="16" viewBox="0 0 16 16" fill="none" xmlns="http://www.w3.org/2000/svg">
<path d="M1 7.87506C1 8.77791 1.17783 9.67191 1.52333 10.506C1.86884 11.3402 2.37525 12.0981 3.01366 12.7365C3.65207 13.3749 4.40997 13.8813 5.24409 14.2268C6.07821 14.5723 6.97222 14.7501 7.87506 14.7501C8.77791 14.7501 9.67191 14.5723 10.506 14.2268C11.3402 13.8813 12.0981 13.3749 12.7365 12.7365C13.3749 12.0981 13.8813 11.3402 14.2268 10.506C14.5723 9.67191 14.7501 8.77791 14.7501 7.87506C14.7501 6.05168 14.0258 4.30298 12.7365 3.01366C11.4471 1.72433 9.69844 1 7.87506 1C6.05168 1 4.30298 1.72433 3.01366 3.01366C1.72433 4.30298 1 6.05168 1 7.87506Z" stroke="#488EFB" stroke-width="1.49" stroke-linecap="round" stroke-linejoin="round"/>
<path d="M7.87598 4.05664V7.87612L10.1677 10.1678" stroke="#488EFB" stroke-width="1.49" stroke-linecap="round" stroke-linejoin="round"/>
</svg>
