<?xml version="1.0" encoding="UTF-8"?>
<svg xmlns="http://www.w3.org/2000/svg" xmlns:xlink="http://www.w3.org/1999/xlink" width="40px" height="40px" viewBox="0 0 40 40" version="1.1">
<g id="surface1">
<path style=" stroke:none;fill-rule:nonzero;fill:rgb(77.647059%,4.705882%,18.823529%);fill-opacity:1;" d="M 16.128906 39.804688 C 12.632812 39.082031 9.371094 37.46875 6.808594 35.191406 C 0.234375 29.351562 -1.796875 20.175781 1.675781 12.015625 C 2.527344 10.007812 3.914062 7.976562 5.632812 6.207031 L 7.148438 4.648438 L 7.253906 13.769531 C 7.359375 22.5 7.378906 22.9375 7.792969 24.039062 C 8.621094 26.238281 9.503906 27.640625 11.03125 29.160156 C 14.96875 33.082031 20.746094 34.0625 25.65625 31.636719 C 30.273438 29.359375 33.183594 24.410156 32.84375 19.40625 C 32.617188 16.046875 31.488281 13.582031 29.046875 11.128906 C 27.203125 9.273438 25.035156 8.0625 22.671875 7.566406 C 20.265625 7.0625 20.382812 6.988281 20.382812 9.023438 L 20.382812 10.78125 L 21.699219 11.023438 C 26.804688 11.964844 30.179688 16.976562 29.117188 22.035156 C 28.777344 23.648438 28.019531 25.074219 26.800781 26.390625 C 24.953125 28.386719 22.351562 29.339844 20.082031 29.335938 C 16.324219 29.328125 13.1875 27.195312 11.667969 24.039062 C 11.667969 24.039062 11.269531 23.136719 11.144531 22.582031 C 10.390625 19.300781 10.871094 12.402344 10.871094 12.402344 L 10.8125 2.3125 L 11.410156 2.003906 C 11.738281 1.835938 12.050781 1.695312 12.105469 1.695312 C 12.164062 1.695312 12.234375 6.328125 12.265625 11.996094 C 12.265625 11.996094 11.542969 19.417969 12.4375 22.265625 C 12.566406 22.675781 12.808594 23.378906 12.808594 23.378906 C 13.59375 24.972656 14.851562 26.378906 16.480469 27.152344 C 17.71875 27.738281 18.34375 28.003906 20.175781 28.003906 C 21.375 28.003906 22.433594 27.625 23.65625 27.0625 C 25.09375 26.402344 26.746094 24.648438 27.355469 23.046875 C 29.035156 18.632812 26.695312 13.882812 22.1875 12.558594 C 20.34375 12.019531 20.382812 11.988281 20.382812 13.992188 L 20.382812 15.742188 L 21.265625 15.980469 C 24.453125 16.832031 25.425781 21.105469 22.925781 23.300781 C 22.039062 24.074219 21.242188 24.417969 19.851562 24.417969 C 18.359375 24.417969 16.933594 23.515625 16.195312 22.132812 C 15.753906 21.304688 15.71875 20.515625 15.71875 20.15625 C 15.71875 16.824219 15.644531 10.828125 15.644531 10.828125 L 15.585938 0.550781 L 16.042969 0.4375 C 16.296875 0.375 17.3125 0.21875 18.304688 0.09375 C 21.667969 -0.335938 26.644531 0.765625 29.984375 2.675781 C 34.542969 5.285156 37.992188 9.761719 39.425781 14.941406 C 39.921875 16.722656 39.976562 17.238281 39.976562 20.105469 C 39.976562 22.957031 39.921875 23.492188 39.4375 25.234375 C 37.484375 32.269531 32.515625 37.300781 25.414062 39.433594 C 23.917969 39.882812 23.21875 39.96875 20.582031 40.023438 C 18.453125 40.070312 17.074219 40 16.128906 39.804688 Z M 16.128906 39.804688 "/>
</g>
</svg>
