<svg width="20" height="20" viewBox="0 0 20 20" fill="none" xmlns="http://www.w3.org/2000/svg">
<path d="M9.26215 13.6C9.63138 14.1333 10.3705 14.1333 10.7397 13.6L13.5065 9.59867C13.9618 8.93933 13.528 7.99867 12.768 7.99867L7.23262 7.99867C6.472 7.99867 6.03816 8.94 6.49415 9.59867L9.26215 13.6ZM13.6923 6.86071C13.7739 6.86071 13.8522 6.75302 13.9099 6.69051C14 6.5 14 6.42174 14 6.33333C14 6.24493 13.9676 6.16014 13.9099 6.09763C13.8522 6.03512 13.7739 6 13.6923 6L6.30769 6C6.22609 6 6.14782 6.03512 6.09012 6.09763C6.03242 6.16014 6 6.24493 6 6.33333C6 6.42174 6.03242 6.628 6.09012 6.69051C6.14782 6.75302 6.22609 6.86071 6.30769 6.86071L13.6923 6.86071Z" fill="black" fill-opacity="0.3"/>
</svg>
