<svg width="28" height="28" viewBox="0 0 28 28" fill="none" xmlns="http://www.w3.org/2000/svg">
<g clip-path="url(#clip0_174_2324)">
<path d="M14 5C14.2549 5.00028 14.5 5.09788 14.6854 5.27285C14.8707 5.44782 14.9822 5.68695 14.9972 5.94139C15.0121 6.19584 14.9293 6.44638 14.7657 6.64183C14.6021 6.83729 14.3701 6.9629 14.117 6.993L14 7H9C8.75507 7.00003 8.51866 7.08996 8.33563 7.25272C8.15259 7.41547 8.03566 7.63975 8.007 7.883L8 8V20C8.00003 20.2449 8.08996 20.4813 8.25272 20.6644C8.41547 20.8474 8.63975 20.9643 8.883 20.993L9 21H13.5C13.7549 21.0003 14 21.0979 14.1854 21.2728C14.3707 21.4478 14.4822 21.687 14.4972 21.9414C14.5121 22.1958 14.4293 22.4464 14.2657 22.6418C14.1021 22.8373 13.8701 22.9629 13.617 22.993L13.5 23H9C8.23479 23 7.49849 22.7077 6.94174 22.1827C6.38499 21.6578 6.04989 20.9399 6.005 20.176L6 20V8C5.99996 7.23479 6.29233 6.49849 6.81728 5.94174C7.34224 5.38499 8.06011 5.04989 8.824 5.005L9 5H14ZM18.707 9.464L22.535 13.293C22.7225 13.4805 22.8278 13.7348 22.8278 14C22.8278 14.2652 22.7225 14.5195 22.535 14.707L18.707 18.536C18.5194 18.7235 18.2649 18.8288 17.9996 18.8287C17.7344 18.8286 17.48 18.7231 17.2925 18.5355C17.105 18.3479 16.9997 18.0934 16.9998 17.8281C16.9999 17.5629 17.1054 17.3085 17.293 17.121L19.414 15H12C11.7348 15 11.4804 14.8946 11.2929 14.7071C11.1054 14.5196 11 14.2652 11 14C11 13.7348 11.1054 13.4804 11.2929 13.2929C11.4804 13.1054 11.7348 13 12 13H19.414L17.293 10.879C17.1054 10.6915 16.9999 10.4371 16.9998 10.1719C16.9997 9.90658 17.105 9.65214 17.2925 9.4645C17.48 9.27686 17.7344 9.17139 17.9996 9.1713C18.2649 9.1712 18.5194 9.27649 18.707 9.464Z" fill="#488EFB"/>
</g>
<defs>
<clipPath id="clip0_174_2324">
<rect width="24" height="24" fill="white" transform="translate(2 2)"/>
</clipPath>
</defs>
</svg>
