<svg width="20" height="20" viewBox="0 0 20 20" fill="none" xmlns="http://www.w3.org/2000/svg">
<path d="M10.0001 14.1207C10.5407 14.1207 11.0344 14.06 11.4847 13.9552L10.4807 12.9209C10.3247 12.9333 10.1664 12.9433 10.0001 12.9433C6.94249 12.9433 5.75795 10.6793 5.4711 9.99993C5.68649 9.50474 5.9774 9.04824 6.33279 8.64774L5.53395 7.82477C4.65512 8.80609 4.32198 9.79448 4.31569 9.81391C4.27628 9.9348 4.27628 10.0656 4.31569 10.1865C4.32769 10.2254 5.63852 14.1207 10.0001 14.1207ZM10.0001 5.87919C8.95044 5.87919 8.08818 6.11231 7.36934 6.45668L5.26139 4.28564L4.45341 5.11803L14.7389 15.7142L15.5469 14.8818L13.6503 12.928C15.144 11.7795 15.6771 10.2113 15.6851 10.1865C15.7246 10.0656 15.7246 9.9348 15.6851 9.81391C15.6726 9.77447 14.3617 5.87919 10.0001 5.87919ZM12.8412 12.0944L11.5384 10.7523C11.647 10.5227 11.7144 10.2701 11.7144 9.99993C11.7144 9.03391 10.9378 8.2339 10.0001 8.2339C9.73785 8.2339 9.49272 8.30336 9.27044 8.4158L8.23732 7.35147C8.80446 7.15098 9.40055 7.05125 10.0001 7.05655C13.0578 7.05655 14.2423 9.3206 14.5292 9.99993C14.3566 10.4073 13.8629 11.3786 12.8412 12.0944Z" fill="black" fill-opacity="0.3"/>
</svg>
