<svg width="17" height="17" viewBox="0 0 17 17" fill="none" xmlns="http://www.w3.org/2000/svg">
<path d="M8.7494 14.4159C9.49268 14.4159 10.1715 14.3325 10.7907 14.1884L9.41018 12.7662C9.19568 12.7832 8.97804 12.797 8.7494 12.797C4.5451 12.797 2.91634 9.68388 2.52192 8.74979C2.81809 8.0689 3.21809 7.44121 3.70676 6.89051L2.60835 5.75892C1.39993 7.10825 0.941869 8.4673 0.933226 8.49401C0.879029 8.66024 0.879029 8.84016 0.933226 9.00638C0.949726 9.05981 2.75213 14.4159 8.7494 14.4159ZM8.7494 3.08373C7.30606 3.08373 6.12044 3.40426 5.13202 3.87779L2.23356 0.892578L1.12258 2.03712L15.2652 16.607L16.3762 15.4625L13.7685 12.7759C15.8223 11.1967 16.5554 9.04038 16.5664 9.00638C16.6206 8.84016 16.6206 8.66024 16.5664 8.49401C16.5491 8.43978 14.7467 3.08373 8.7494 3.08373ZM12.6559 11.6298L10.8645 9.78425C11.0138 9.46857 11.1065 9.12132 11.1065 8.74979C11.1065 7.4215 10.0387 6.32148 8.7494 6.32148C8.38876 6.32148 8.0517 6.41699 7.74606 6.57159L6.32551 5.10813C7.10533 4.83245 7.92497 4.69532 8.7494 4.7026C12.9537 4.7026 14.5825 7.8157 14.9769 8.74979C14.7396 9.30992 14.0608 10.6455 12.6559 11.6298Z" fill="#488EFB"/>
</svg>
