<svg width="28" height="28" viewBox="0 0 28 28" fill="none" xmlns="http://www.w3.org/2000/svg">
<path d="M15.1202 19.0232L10.9212 16.7332C10.373 17.3193 9.66119 17.7269 8.87828 17.9031C8.09537 18.0793 7.27756 18.0159 6.53113 17.7212C5.7847 17.4266 5.14417 16.9142 4.69277 16.2507C4.24138 15.5871 4 14.8032 4 14.0007C4 13.1982 4.24138 12.4143 4.69277 11.7508C5.14417 11.0873 5.7847 10.5749 6.53113 10.2802C7.27756 9.98548 8.09537 9.92212 8.87828 10.0983C9.66119 10.2745 10.373 10.6821 10.9212 11.2682L15.1212 8.97821C14.8831 8.03417 14.9975 7.0357 15.4429 6.16997C15.8884 5.30424 16.6342 4.63069 17.5408 4.27557C18.4473 3.92046 19.4522 3.90816 20.3671 4.24098C21.2821 4.57381 22.0442 5.2289 22.5107 6.08347C22.9772 6.93804 23.116 7.93341 22.9011 8.88299C22.6862 9.83257 22.1323 10.6712 21.3433 11.2416C20.5543 11.812 19.5843 12.0751 18.6152 11.9815C17.6462 11.8879 16.7445 11.4441 16.0792 10.7332L11.8792 13.0232C12.0404 13.6646 12.0404 14.3358 11.8792 14.9772L16.0792 17.2672C16.7448 16.5567 17.6467 16.1133 18.6158 16.0202C19.5849 15.9271 20.5547 16.1906 21.3434 16.7614C22.1322 17.3322 22.6856 18.171 22.9001 19.1207C23.1146 20.0703 22.9754 21.0656 22.5085 21.9199C22.0417 22.7743 21.2793 23.429 20.3642 23.7615C19.4491 24.0939 18.4442 24.0812 17.5379 23.7257C16.6315 23.3702 15.8859 22.6964 15.4408 21.8305C14.9958 20.9646 14.8818 19.9661 15.1202 19.0222V19.0232ZM8.00021 16.0002C8.53064 16.0002 9.03935 15.7895 9.41442 15.4144C9.78949 15.0393 10.0002 14.5306 10.0002 14.0002C10.0002 13.4698 9.78949 12.9611 9.41442 12.586C9.03935 12.2109 8.53064 12.0002 8.00021 12.0002C7.46977 12.0002 6.96107 12.2109 6.58599 12.586C6.21092 12.9611 6.00021 13.4698 6.00021 14.0002C6.00021 14.5306 6.21092 15.0393 6.58599 15.4144C6.96107 15.7895 7.46977 16.0002 8.00021 16.0002ZM19.0002 10.0002C19.5306 10.0002 20.0393 9.78949 20.4144 9.41442C20.7895 9.03935 21.0002 8.53064 21.0002 8.00021C21.0002 7.46977 20.7895 6.96107 20.4144 6.58599C20.0393 6.21092 19.5306 6.00021 19.0002 6.00021C18.4698 6.00021 17.9611 6.21092 17.586 6.58599C17.2109 6.96107 17.0002 7.46977 17.0002 8.00021C17.0002 8.53064 17.2109 9.03935 17.586 9.41442C17.9611 9.78949 18.4698 10.0002 19.0002 10.0002ZM19.0002 22.0002C19.5306 22.0002 20.0393 21.7895 20.4144 21.4144C20.7895 21.0393 21.0002 20.5306 21.0002 20.0002C21.0002 19.4698 20.7895 18.9611 20.4144 18.586C20.0393 18.2109 19.5306 18.0002 19.0002 18.0002C18.4698 18.0002 17.9611 18.2109 17.586 18.586C17.2109 18.9611 17.0002 19.4698 17.0002 20.0002C17.0002 20.5306 17.2109 21.0393 17.586 21.4144C17.9611 21.7895 18.4698 22.0002 19.0002 22.0002Z" fill="#488EFB"/>
</svg>
