<svg width="19" height="20" viewBox="0 0 19 20" fill="none" xmlns="http://www.w3.org/2000/svg">
<path d="M11.1202 15.0232L6.92121 12.7332C6.373 13.3193 5.66119 13.7269 4.87828 13.9031C4.09537 14.0793 3.27756 14.0159 2.53113 13.7212C1.7847 13.4266 1.14417 12.9142 0.692774 12.2507C0.241381 11.5871 0 10.8032 0 10.0007C0 9.19821 0.241381 8.41427 0.692774 7.75076C1.14417 7.08725 1.7847 6.57486 2.53113 6.28017C3.27756 5.98548 4.09537 5.92212 4.87828 6.09832C5.66119 6.27452 6.373 6.68214 6.92121 7.26821L11.1212 4.97821C10.8831 4.03417 10.9975 3.0357 11.4429 2.16997C11.8884 1.30424 12.6342 0.630692 13.5408 0.275574C14.4473 -0.0795433 15.4522 -0.0918428 16.3671 0.240981C17.2821 0.573805 18.0442 1.2289 18.5107 2.08347C18.9772 2.93804 19.116 3.93341 18.9011 4.88299C18.6862 5.83257 18.1323 6.67116 17.3433 7.24158C16.5543 7.81199 15.5843 8.07506 14.6152 7.98148C13.6462 7.88789 12.7445 7.44407 12.0792 6.73321L7.87921 9.02321C8.04041 9.66457 8.04041 10.3358 7.87921 10.9772L12.0792 13.2672C12.7448 12.5567 13.6467 12.1133 14.6158 12.0202C15.5849 11.9271 16.5547 12.1906 17.3434 12.7614C18.1322 13.3322 18.6856 14.171 18.9001 15.1207C19.1146 16.0703 18.9754 17.0656 18.5085 17.9199C18.0417 18.7743 17.2793 19.429 16.3642 19.7615C15.4491 20.0939 14.4442 20.0812 13.5379 19.7257C12.6315 19.3702 11.8859 18.6964 11.4408 17.8305C10.9958 16.9646 10.8818 15.9661 11.1202 15.0222V15.0232ZM4.00021 12.0002C4.53064 12.0002 5.03935 11.7895 5.41442 11.4144C5.78949 11.0393 6.00021 10.5306 6.00021 10.0002C6.00021 9.46977 5.78949 8.96107 5.41442 8.58599C5.03935 8.21092 4.53064 8.00021 4.00021 8.00021C3.46977 8.00021 2.96107 8.21092 2.58599 8.58599C2.21092 8.96107 2.00021 9.46977 2.00021 10.0002C2.00021 10.5306 2.21092 11.0393 2.58599 11.4144C2.96107 11.7895 3.46977 12.0002 4.00021 12.0002ZM15.0002 6.00021C15.5306 6.00021 16.0393 5.78949 16.4144 5.41442C16.7895 5.03935 17.0002 4.53064 17.0002 4.00021C17.0002 3.46977 16.7895 2.96107 16.4144 2.58599C16.0393 2.21092 15.5306 2.00021 15.0002 2.00021C14.4698 2.00021 13.9611 2.21092 13.586 2.58599C13.2109 2.96107 13.0002 3.46977 13.0002 4.00021C13.0002 4.53064 13.2109 5.03935 13.586 5.41442C13.9611 5.78949 14.4698 6.00021 15.0002 6.00021ZM15.0002 18.0002C15.5306 18.0002 16.0393 17.7895 16.4144 17.4144C16.7895 17.0393 17.0002 16.5306 17.0002 16.0002C17.0002 15.4698 16.7895 14.9611 16.4144 14.586C16.0393 14.2109 15.5306 14.0002 15.0002 14.0002C14.4698 14.0002 13.9611 14.2109 13.586 14.586C13.2109 14.9611 13.0002 15.4698 13.0002 16.0002C13.0002 16.5306 13.2109 17.0393 13.586 17.4144C13.9611 17.7895 14.4698 18.0002 15.0002 18.0002Z" fill="white"/>
</svg>
