<svg width="12" height="17" viewBox="0 0 12 17" fill="none" xmlns="http://www.w3.org/2000/svg">
<path d="M5.97656 3.98438C4.87784 3.98438 3.98438 4.87784 3.98438 5.97656C3.98438 7.08053 4.87624 7.96875 5.97656 7.96875C7.0966 7.96875 7.96875 7.0638 7.96875 5.97656C7.96875 4.87784 7.07529 3.98438 5.97656 3.98438Z" fill="#488EFB"/>
<path d="M5.97656 0C2.68089 0 0 2.68089 0 5.97656C0 7.08986 0.308357 8.17644 0.891537 9.11904L5.63613 16.7644C5.83286 17.0821 6.29671 17.0772 6.48729 16.7576L11.1108 9.03829C11.6613 8.11564 11.9531 7.05679 11.9531 5.97656C11.9531 2.68089 9.27224 0 5.97656 0ZM5.97656 8.97149C4.30495 8.97149 2.98164 7.61085 2.98164 5.97656C2.98164 4.32872 4.32872 2.98164 5.97656 2.98164C7.6244 2.98164 8.97149 4.32872 8.97149 5.97656C8.97149 7.59644 7.66597 8.97149 5.97656 8.97149Z" fill="#488EFB"/>
</svg>
