<svg width="28" height="28" viewBox="0 0 28 28" fill="none" xmlns="http://www.w3.org/2000/svg">
	<path d="M13.9992 8.28564C13.2928 8.28564 12.6023 8.49511 12.015 8.88754C11.4277 9.27997 10.9699 9.83775 10.6996 10.4903C10.4293 11.1429 10.3586 11.861 10.4964 12.5538C10.6342 13.2466 10.9743 13.883 11.4738 14.3825C11.9733 14.8819 12.6096 15.2221 13.3024 15.3599C13.9952 15.4977 14.7133 15.427 15.3659 15.1566C16.0185 14.8863 16.5763 14.4286 16.9687 13.8412C17.3611 13.2539 17.5706 12.5634 17.5706 11.8571C17.5706 10.9099 17.1943 10.0015 16.5245 9.33169C15.8548 8.66192 14.9464 8.28564 13.9992 8.28564Z" fill="white"/>
	<path d="M14 4C12.0222 4 10.0888 4.58649 8.4443 5.6853C6.79981 6.78412 5.51808 8.3459 4.76121 10.1732C4.00433 12.0004 3.8063 14.0111 4.19215 15.9509C4.578 17.8907 5.53041 19.6725 6.92893 21.0711C8.32746 22.4696 10.1093 23.422 12.0491 23.8078C13.9889 24.1937 15.9996 23.9957 17.8268 23.2388C19.6541 22.4819 21.2159 21.2002 22.3147 19.5557C23.4135 17.9112 24 15.9778 24 14C23.997 11.3488 22.9424 8.80698 21.0677 6.93227C19.193 5.05756 16.6512 4.00302 14 4ZM19.7086 20.3757C19.6943 19.4388 19.3126 18.545 18.6456 17.8868C17.9787 17.2287 17.0799 16.8589 16.1429 16.8571H11.8571C10.9201 16.8589 10.0213 17.2287 9.35435 17.8868C8.68739 18.545 8.30567 19.4388 8.29143 20.3757C6.99612 19.2191 6.08267 17.6963 5.67203 16.009C5.26139 14.3217 5.37293 12.5495 5.99189 10.927C6.61084 9.30455 7.70802 7.90833 9.13812 6.92326C10.5682 5.93819 12.2638 5.41073 14.0004 5.41073C15.7369 5.41073 17.4325 5.93819 18.8626 6.92326C20.2927 7.90833 21.3899 9.30455 22.0088 10.927C22.6278 12.5495 22.7393 14.3217 22.3287 16.009C21.918 17.6963 21.0046 19.2191 19.7093 20.3757H19.7086Z" fill="white"/>
</svg>
