<svg width="20" height="20" viewBox="0 0 20 20" fill="none" xmlns="http://www.w3.org/2000/svg">
<path d="M10.0001 4.28571C9.29378 4.28571 8.60328 4.49517 8.01596 4.8876C7.42864 5.28003 6.97088 5.83781 6.70057 6.49041C6.43026 7.143 6.35953 7.86109 6.49734 8.55388C6.63514 9.24667 6.97529 9.88304 7.47476 10.3825C7.97423 10.882 8.6106 11.2221 9.30339 11.3599C9.99618 11.4977 10.7143 11.427 11.3669 11.1567C12.0195 10.8864 12.5772 10.4286 12.9697 9.84131C13.3621 9.25399 13.5716 8.56349 13.5716 7.85713C13.5716 6.90993 13.1953 6.00152 12.5255 5.33175C11.8557 4.66198 10.9473 4.28571 10.0001 4.28571Z" fill="white"/>
<path d="M10 0C8.02219 0 6.08879 0.586489 4.4443 1.6853C2.79981 2.78412 1.51808 4.3459 0.761209 6.17316C0.00433283 8.00042 -0.1937 10.0111 0.192152 11.9509C0.578004 13.8907 1.53041 15.6725 2.92893 17.0711C4.32746 18.4696 6.10929 19.422 8.0491 19.8078C9.9889 20.1937 11.9996 19.9957 13.8268 19.2388C15.6541 18.4819 17.2159 17.2002 18.3147 15.5557C19.4135 13.9112 20 11.9778 20 9.99999C19.997 7.34876 18.9424 4.80698 17.0677 2.93227C15.193 1.05756 12.6512 0.0030248 10 0ZM15.7086 16.3757C15.6943 15.4388 15.3126 14.545 14.6456 13.8868C13.9787 13.2287 13.0799 12.8589 12.1429 12.8571H7.85714C6.92013 12.8589 6.02131 13.2287 5.35435 13.8868C4.68739 14.545 4.30567 15.4388 4.29143 16.3757C2.99612 15.2191 2.08267 13.6963 1.67203 12.009C1.26139 10.3217 1.37293 8.54953 1.99189 6.92704C2.61084 5.30455 3.70802 3.90833 5.13812 2.92326C6.56823 1.93819 8.26381 1.41073 10.0004 1.41073C11.7369 1.41073 13.4325 1.93819 14.8626 2.92326C16.2927 3.90833 17.3899 5.30455 18.0088 6.92704C18.6278 8.54953 18.7393 10.3217 18.3287 12.009C17.918 13.6963 17.0046 15.2191 15.7093 16.3757H15.7086Z" fill="white"/>
</svg>
