<svg width="20" height="20" viewBox="0 0 20 20" fill="none" xmlns="http://www.w3.org/2000/svg">
<path d="M9.77732 4.08628C9.87011 3.90447 10.1299 3.90447 10.2227 4.08628L11.4989 6.58701C11.7532 7.08527 12.2303 7.43194 12.7828 7.5198L15.5555 7.96078C15.7571 7.99284 15.8373 8.23991 15.6931 8.38434L13.7091 10.3709C13.3138 10.7667 13.1316 11.3276 13.2187 11.8801L13.6561 14.6534C13.6879 14.855 13.4778 15.0077 13.2958 14.9152L10.7935 13.6422C10.2949 13.3885 9.7051 13.3885 9.20652 13.6422L6.70415 14.9152C6.52222 15.0077 6.31205 14.855 6.34385 14.6534L6.78127 11.8801C6.86843 11.3276 6.68617 10.7667 6.29087 10.3709L4.30691 8.38434C4.16267 8.23991 4.24294 7.99284 4.44453 7.96078L7.21723 7.5198C7.76968 7.43194 8.24684 7.08527 8.50112 6.58701L9.77732 4.08628Z" fill="#A8A8A8" stroke="#A8A8A8" stroke-width="1.5"/>
</svg>
