<svg width="20" height="20" viewBox="0 0 20 20" fill="none" xmlns="http://www.w3.org/2000/svg">
<path d="M10.7378 6.4C10.3686 5.86667 9.62954 5.86667 9.26031 6.4L6.49354 10.4013C6.03815 11.0607 6.472 12.0013 7.232 12.0013H12.7674C13.528 12.0013 13.9618 11.06 13.5058 10.4013L10.7378 6.4ZM6.30769 13.1393C6.22609 13.1393 6.14782 13.247 6.09012 13.3095C6 13.5 6 13.5783 6 13.6667C6 13.7551 6.03242 13.8399 6.09012 13.9024C6.14782 13.9649 6.22609 14 6.30769 14H13.6923C13.7739 14 13.8522 13.9649 13.9099 13.9024C13.9676 13.8399 14 13.7551 14 13.6667C14 13.5783 13.9676 13.372 13.9099 13.3095C13.8522 13.247 13.7739 13.1393 13.6923 13.1393H6.30769Z" fill="black" fill-opacity="0.3"/>
</svg>
