<svg width="24" height="24" viewBox="0 0 24 24" fill="none" xmlns="http://www.w3.org/2000/svg">
<path d="M18.0525 15.1296C17.2812 14.2939 16.3452 13.627 15.3035 13.1709C14.2618 12.7147 13.1369 12.4792 11.9997 12.4792C10.8625 12.4792 9.73765 12.7147 8.69593 13.1709C7.65422 13.627 6.71825 14.2939 5.94696 15.1296C5.82789 15.2612 5.76127 15.432 5.75977 15.6096V18.4896C5.76229 18.6788 5.83926 18.8595 5.97401 18.9925C6.10876 19.1254 6.29046 19.2 6.47976 19.1999H17.5197C17.7106 19.1999 17.8938 19.1241 18.0288 18.9891C18.1638 18.854 18.2397 18.6709 18.2397 18.48V15.6C18.2359 15.4258 18.1694 15.2588 18.0525 15.1296Z" fill="#488EFB"/>
<path d="M12.0006 11.52C13.8563 11.52 15.3606 10.0157 15.3606 8.16003C15.3606 6.30436 13.8563 4.80005 12.0006 4.80005C10.1449 4.80005 8.64062 6.30436 8.64062 8.16003C8.64062 10.0157 10.1449 11.52 12.0006 11.52Z" fill="#488EFB"/>
</svg>
