<svg width="24" height="24" viewBox="0 0 24 24" fill="none" xmlns="http://www.w3.org/2000/svg">
<path d="M7.1998 6C6.56329 6 5.95284 6.25286 5.50275 6.70294C5.05266 7.15303 4.7998 7.76348 4.7998 8.4V8.6412L11.9998 12.5184L19.1998 8.6424V8.4C19.1998 7.76348 18.9469 7.15303 18.4969 6.70294C18.0468 6.25286 17.4363 6 16.7998 6H7.1998ZM19.1998 10.0044L12.2842 13.728C12.1968 13.7751 12.0991 13.7997 11.9998 13.7997C11.9005 13.7997 11.8028 13.7751 11.7154 13.728L4.7998 10.0044V15.6C4.7998 16.2365 5.05266 16.847 5.50275 17.2971C5.95284 17.7471 6.56329 18 7.1998 18H16.7998C17.4363 18 18.0468 17.7471 18.4969 17.2971C18.9469 16.847 19.1998 16.2365 19.1998 15.6V10.0044Z" fill="#488EFB"/>
</svg>
