<svg width="24" height="24" viewBox="0 0 24 24" fill="none" xmlns="http://www.w3.org/2000/svg">
<path fill-rule="evenodd" clip-rule="evenodd" d="M15.1877 19.0929C14.1797 19.0558 11.323 18.661 8.33117 15.6699C5.34007 12.6781 4.94597 9.82213 4.90817 8.81343C4.85217 7.27623 6.02957 5.78313 7.38967 5.20003C7.55345 5.12931 7.73281 5.10238 7.91014 5.1219C8.08747 5.14141 8.25668 5.20669 8.40117 5.31133C9.52117 6.12753 10.294 7.36233 10.9576 8.33323C11.1036 8.54654 11.166 8.80612 11.133 9.06249C11.0999 9.31887 10.9737 9.55412 10.7784 9.72343L9.41267 10.7377C9.34669 10.7854 9.30024 10.8554 9.28196 10.9347C9.26368 11.014 9.27481 11.0972 9.31327 11.1689C9.62267 11.731 10.1729 12.5682 10.8029 13.1982C11.4336 13.8282 12.31 14.4148 12.9113 14.7592C12.9867 14.8016 13.0754 14.8134 13.1592 14.7923C13.2431 14.7712 13.3157 14.7188 13.3621 14.6458L14.2511 13.2927C14.4145 13.0756 14.6556 12.9302 14.9239 12.8869C15.1922 12.8435 15.4668 12.9057 15.6903 13.0603C16.6752 13.7421 17.8246 14.5016 18.666 15.5789C18.7791 15.7245 18.8511 15.8977 18.8744 16.0806C18.8976 16.2634 18.8713 16.4492 18.7983 16.6184C18.2124 17.9855 16.7298 19.1496 15.1877 19.0929Z" fill="#488EFB"/>
</svg>
