<svg width="32" height="30" viewBox="0 0 32 30" fill="none" xmlns="http://www.w3.org/2000/svg">
<path d="M21.5055 11.3214L14.2527 6.12657C14.0707 5.99605 13.859 5.9211 13.6404 5.90972C13.4217 5.89833 13.2043 5.95095 13.0113 6.06195C12.8183 6.17295 12.657 6.33817 12.5446 6.53996C12.4322 6.74176 12.3729 6.97256 12.3731 7.20774V17.5973C12.3729 17.8325 12.4322 18.0633 12.5446 18.2651C12.657 18.4669 12.8183 18.6321 13.0113 18.7431C13.2043 18.8541 13.4217 18.9068 13.6404 18.8954C13.859 18.884 14.0707 18.809 14.2527 18.6785L21.5055 13.4837C21.6713 13.3652 21.8073 13.2044 21.9013 13.0158C21.9954 12.8272 22.0446 12.6165 22.0446 12.4025C22.0446 12.1886 21.9954 11.9779 21.9013 11.7893C21.8073 11.6007 21.6713 11.4399 21.5055 11.3214ZM14.7907 15.1704V9.6428L18.6558 12.4025L14.7907 15.1704ZM29.2961 0.714233H2.70274C2.06156 0.714233 1.44663 0.987887 0.99325 1.47499C0.539865 1.9621 0.285156 2.62276 0.285156 3.31164V21.4935C0.285156 22.1823 0.539865 22.843 0.99325 23.3301C1.44663 23.8172 2.06156 24.0909 2.70274 24.0909H29.2961C29.9373 24.0909 30.5522 23.8172 31.0056 23.3301C31.459 22.843 31.7137 22.1823 31.7137 21.4935V3.31164C31.7137 2.62276 31.459 1.9621 31.0056 1.47499C30.5522 0.987887 29.9373 0.714233 29.2961 0.714233ZM29.2961 21.4935H2.70274V3.31164H29.2961V21.4935ZM31.7137 27.987C31.7137 28.3314 31.5864 28.6617 31.3597 28.9053C31.133 29.1488 30.8255 29.2857 30.5049 29.2857H1.49395C1.17336 29.2857 0.865895 29.1488 0.639203 28.9053C0.412511 28.6617 0.285156 28.3314 0.285156 27.987C0.285156 27.6425 0.412511 27.3122 0.639203 27.0686C0.865895 26.8251 1.17336 26.6883 1.49395 26.6883H30.5049C30.8255 26.6883 31.133 26.8251 31.3597 27.0686C31.5864 27.3122 31.7137 27.6425 31.7137 27.987Z" fill="#488EFB"/>
</svg>
